<?xml version="1.0" encoding="utf-8"?>
<!-- Generator: Adobe Illustrator 21.1.0, SVG Export Plug-In . SVG Version: 6.00 Build 0)  -->
<svg version="1.1" id="Layer_1" xmlns="http://www.w3.org/2000/svg" xmlns:xlink="http://www.w3.org/1999/xlink" x="0px" y="0px"
	 viewBox="0 0 557.7 137.9" style="enable-background:new 0 0 557.7 137.9;" xml:space="preserve">
<style type="text/css">
	.st0{fill:#EAB342;}
	.st1{fill:#125DBB;}
	.st2{fill:#0D83F5;}
	.st3{fill:#282828;}
</style>
<rect x="26.3" y="21" class="st0" width="26.4" height="28.8"/>
<rect x="52.7" class="st0" width="19.2" height="21"/>
<rect x="79.1" y="32.1" class="st0" width="16.2" height="17.7"/>
<path class="st1" d="M52.7,49.8v27.8H26.4V63.9V49.8v-0.3V21h-0.9C11.4,21,0,32.4,0,46.5v3h0l0,0.1v0.2h0l0,20.6l0,0v10.1v43v14.4
	h26.4l0-20.9l0,0v-10.1v-0.4h26.3h0h0.9c14.1,0,25.5-11.4,25.5-25.5v-2.3v-1V49.8H52.7z"/>
<g>
	<path class="st2" d="M154.2,27.1l18.3,58.5h-14.7l-3.6-12h-18.9l-3.7,12h-12l18.8-58.5H154.2z M138.5,62.8h12.4l-6.1-20.5
		L138.5,62.8z"/>
	<path class="st2" d="M223.8,27.1v58.5h-11.7l-22.9-39.5c0,1,0.1,1.7,0.1,2c0.1,1,0.2,1.8,0.2,2.5v35h-10.7V27.1h14.8l19.9,34.5
		c-0.2-1.7-0.3-3-0.3-3.9V27.1H223.8z"/>
	<path class="st2" d="M272.7,27.1v11.6h-14.5v46.9h-13.9V38.7h-14.6V27.1H272.7z"/>
	<path class="st2" d="M320.3,38.3h-27.9v12h21.9v11h-21.9v12.8h27.9v11.6h-41.8V27.1h41.8V38.3z"/>
	<path class="st2" d="M370.8,37.2l-29.6,37.3h30.5v11.2h-47.2v-9.9L354,38.2h-27.5V27.1h44.3V37.2z"/>
	<path class="st2" d="M408.1,27.1l18.3,58.5h-14.7l-3.6-12h-18.9l-3.7,12h-12l18.8-58.5H408.1z M392.4,62.8h12.4l-6.1-20.5
		L392.4,62.8z"/>
	<path class="st2" d="M477.7,27.1v58.5H466l-22.9-39.5c0,1,0.1,1.7,0.1,2c0.1,1,0.2,1.8,0.2,2.5v35h-10.7V27.1h14.8l19.9,34.5
		c-0.2-1.7-0.3-3-0.3-3.9V27.1H477.7z"/>
	<path class="st2" d="M518.2,27.1l18.3,58.5h-14.7l-3.6-12h-18.9l-3.7,12h-12l18.8-58.5H518.2z M502.6,62.8H515l-6.1-20.5
		L502.6,62.8z"/>
</g>
<g>
	<path class="st3" d="M127.2,130.6h-4.8v-28.1h4.5v3.7c1.5-2.7,3.6-4.1,6.4-4.1c2.3,0,4.2,1,5.6,3c1.4,2,2.1,4.6,2.1,7.8
		c0,3-0.7,5.6-2,7.8c-1.3,2.2-3.3,3.3-5.9,3.3c-2.7,0-4.7-1.1-5.9-3.4V130.6z M127.2,114.9c0,1.5,0.5,2.8,1.4,3.8s1.9,1.5,3,1.5
		c1.5,0,2.6-0.7,3.3-2c0.7-1.3,1.1-3,1.1-5c0-2.1-0.4-3.9-1.1-5.2s-1.8-2-3.2-2c-1.3,0-2.3,0.5-3.2,1.6c-0.9,1.1-1.3,2.5-1.3,4.3
		V114.9z"/>
	<path class="st3" d="M163.3,123.5h-4.5c-0.4-1.3-0.6-2.7-0.7-4.2c-1.3,3.1-3.6,4.7-7.1,4.7c-2.1,0-3.8-0.6-5-1.8
		c-1.3-1.2-1.9-2.8-1.9-4.6c0-4.8,4.2-7.2,12.7-7.2c0.3,0,0.8,0,1.4,0v-1.6c0-2.2-1.5-3.3-4.5-3.3c-2.9,0-4.5,1.1-4.9,3.3l-4-0.6
		c0.2-1.7,1.1-3.2,2.7-4.3s3.9-1.7,6.9-1.7c1.6,0,2.9,0.1,4,0.4c1,0.3,1.9,0.7,2.6,1.4c0.7,0.6,1.2,1.3,1.5,2.1s0.4,2,0.4,3.8v9.5
		C162.7,120.6,162.9,122,163.3,123.5z M158.1,112.8c-6.1,0-9.2,1.5-9.2,4.4c0,0.9,0.3,1.6,0.9,2.2c0.6,0.6,1.6,0.9,2.8,0.9
		c1.8,0,3.2-0.6,4.1-1.7c0.9-1.1,1.4-2.4,1.4-3.9V112.8z"/>
	<path class="st3" d="M185.7,123.5h-4.4V119c-1.2,3.3-3.4,5-6.6,5c-1.9,0-3.4-0.6-4.6-1.8c-1.1-1.2-1.7-2.8-1.7-5v-14.7h4.8v13.7
		c0,1.5,0.3,2.5,1,3s1.3,0.7,2,0.7c1,0,2.1-0.5,3.1-1.4s1.6-2.9,1.6-5.9v-10.1h4.7V123.5z"/>
	<path class="st3" d="M196.1,123.5h-4.7V95.1h4.7V123.5z"/>
	<path class="st3" d="M219.8,123.5h-4.5c-0.4-1.3-0.6-2.7-0.7-4.2c-1.3,3.1-3.6,4.7-7.1,4.7c-2.1,0-3.8-0.6-5-1.8
		c-1.3-1.2-1.9-2.8-1.9-4.6c0-4.8,4.2-7.2,12.7-7.2c0.3,0,0.8,0,1.4,0v-1.6c0-2.2-1.5-3.3-4.5-3.3c-2.9,0-4.5,1.1-4.9,3.3l-4-0.6
		c0.2-1.7,1.1-3.2,2.7-4.3s3.9-1.7,6.9-1.7c1.6,0,2.9,0.1,4,0.4c1,0.3,1.9,0.7,2.6,1.4c0.7,0.6,1.2,1.3,1.5,2.1s0.4,2,0.4,3.8v9.5
		C219.2,120.6,219.4,122,219.8,123.5z M214.6,112.8c-6.1,0-9.2,1.5-9.2,4.4c0,0.9,0.3,1.6,0.9,2.2c0.6,0.6,1.6,0.9,2.8,0.9
		c1.8,0,3.2-0.6,4.1-1.7c0.9-1.1,1.4-2.4,1.4-3.9V112.8z"/>
	<path class="st3" d="M242.3,123.5h-4.7v-13.1c0-1.4-0.3-2.4-1-3.1c-0.6-0.7-1.4-1.1-2.3-1.1c-1.2,0-2.3,0.5-3.2,1.6
		c-0.9,1.1-1.4,2.7-1.4,4.9v10.8h-4.7v-21h4.3v4.9c1.5-3.5,3.6-5.3,6.4-5.3c1.8,0,3.4,0.6,4.7,1.7c1.3,1.2,2,3.2,2,6.1V123.5z"/>
	<path class="st3" d="M257.7,119.8v3.7c-1.4,0.3-2.5,0.5-3.3,0.5c-1.3,0-2.4-0.3-3.3-0.8c-0.9-0.5-1.6-1.2-2-2.1s-0.6-2.2-0.6-4.1
		v-10.9h-2.6v-3.7h2.9l0.4-5.5l3.9-0.4v5.8h4.2v3.7h-4.2v10.3c0,1.3,0.2,2.2,0.7,2.7s1.4,0.7,2.7,0.7
		C256.9,119.8,257.3,119.8,257.7,119.8z"/>
	<path class="st3" d="M274.4,116.8l4.3,0.6c-0.6,1.9-1.6,3.5-3.2,4.7c-1.6,1.2-3.6,1.9-6.1,1.9c-2.9,0-5.3-1-7-2.9
		c-1.8-2-2.7-4.6-2.7-8c0-3.2,0.9-5.8,2.7-7.9c1.8-2.1,4.2-3.1,7.3-3.1c3,0,5.3,1,7,3.1c1.6,2.1,2.5,4.7,2.5,7.9l0,0.5h-14.4
		c0,1.4,0.1,2.6,0.4,3.4c0.3,0.9,0.8,1.6,1.6,2.2c0.8,0.6,1.8,1,3,1C272,120.2,273.6,119.1,274.4,116.8z M274.1,110.5
		c0-1.5-0.5-2.7-1.4-3.7c-0.9-1-2-1.4-3.3-1.4c-1.3,0-2.4,0.4-3.3,1.3c-0.9,0.9-1.4,2.2-1.5,3.8H274.1z"/>
	<path class="st3" d="M297.4,119.8v3.7h-15.9v-3.7l10.1-13.7h-9.2v-3.7h14.9v3.4l-10.4,14H297.4z"/>
	<path class="st3" d="M319.2,123.5h-4.5c-0.4-1.3-0.6-2.7-0.7-4.2c-1.3,3.1-3.6,4.7-7.1,4.7c-2.1,0-3.8-0.6-5-1.8
		c-1.3-1.2-1.9-2.8-1.9-4.6c0-4.8,4.2-7.2,12.7-7.2c0.3,0,0.8,0,1.4,0v-1.6c0-2.2-1.5-3.3-4.5-3.3c-2.9,0-4.5,1.1-4.9,3.3l-4-0.6
		c0.2-1.7,1.1-3.2,2.7-4.3c1.6-1.1,3.9-1.7,6.9-1.7c1.6,0,2.9,0.1,4,0.4c1,0.3,1.9,0.7,2.6,1.4c0.7,0.6,1.2,1.3,1.5,2.1
		c0.3,0.8,0.4,2,0.4,3.8v9.5C318.6,120.6,318.8,122,319.2,123.5z M314,112.8c-6.1,0-9.2,1.5-9.2,4.4c0,0.9,0.3,1.6,0.9,2.2
		s1.6,0.9,2.8,0.9c1.8,0,3.2-0.6,4.1-1.7s1.4-2.4,1.4-3.9V112.8z"/>
	<path class="st3" d="M341.7,123.5h-4.7v-13.1c0-1.4-0.3-2.4-1-3.1c-0.6-0.7-1.4-1.1-2.3-1.1c-1.2,0-2.3,0.5-3.2,1.6
		s-1.4,2.7-1.4,4.9v10.8h-4.7v-21h4.3v4.9c1.5-3.5,3.6-5.3,6.4-5.3c1.8,0,3.4,0.6,4.7,1.7c1.3,1.2,2,3.2,2,6.1V123.5z"/>
	<path class="st3" d="M365.4,123.5h-4.5c-0.4-1.3-0.6-2.7-0.7-4.2c-1.3,3.1-3.6,4.7-7.1,4.7c-2.1,0-3.8-0.6-5-1.8
		c-1.3-1.2-1.9-2.8-1.9-4.6c0-4.8,4.2-7.2,12.7-7.2c0.3,0,0.8,0,1.4,0v-1.6c0-2.2-1.5-3.3-4.5-3.3c-2.9,0-4.5,1.1-4.9,3.3l-4-0.6
		c0.2-1.7,1.1-3.2,2.7-4.3c1.6-1.1,3.9-1.7,6.9-1.7c1.6,0,2.9,0.1,4,0.4c1,0.3,1.9,0.7,2.6,1.4c0.7,0.6,1.2,1.3,1.5,2.1
		c0.3,0.8,0.4,2,0.4,3.8v9.5C364.7,120.6,364.9,122,365.4,123.5z M360.1,112.8c-6.1,0-9.2,1.5-9.2,4.4c0,0.9,0.3,1.6,0.9,2.2
		s1.6,0.9,2.8,0.9c1.8,0,3.2-0.6,4.1-1.7s1.4-2.4,1.4-3.9V112.8z"/>
	<path class="st3" d="M375.3,118v5.5h-5.1V118H375.3z"/>
	<path class="st3" d="M392.8,115.8l4.1,0.4c-0.5,2.6-1.5,4.6-3.1,5.8c-1.5,1.3-3.3,1.9-5.5,1.9c-2.9,0-5.1-1.1-6.7-3.2
		c-1.6-2.1-2.3-4.7-2.3-7.8c0-3.2,0.9-5.8,2.6-7.8c1.7-2.1,4-3.1,6.8-3.1c4.6,0,7.3,2.4,8.2,7.2l-4.1,0.6c-0.4-2.6-1.6-3.9-3.8-3.9
		c-1.6,0-2.8,0.7-3.5,2.1c-0.7,1.4-1.1,3.1-1.1,5.1c0,2.1,0.4,3.8,1.1,4.9c0.8,1.2,1.8,1.7,3.2,1.7
		C390.7,119.8,392.1,118.4,392.8,115.8z"/>
	<path class="st3" d="M408.7,123.9c-3.1,0-5.5-1.1-7.1-3.4c-1.6-2.2-2.5-4.8-2.5-7.7c0-3.1,0.9-5.7,2.7-7.8s4.2-3.1,7.2-3.1
		c2.8,0,5.1,1,6.9,3c1.8,2,2.7,4.6,2.7,7.8c0,3.3-0.9,6-2.8,8S411.6,123.9,408.7,123.9z M408.9,120c3.2,0,4.8-2.4,4.8-7.1
		c0-2.2-0.4-3.8-1.1-5.1c-0.8-1.2-1.9-1.9-3.5-1.9c-1.6,0-2.9,0.6-3.6,1.9s-1.2,3-1.2,5.1c0,2.3,0.4,4,1.3,5.2
		C406.3,119.4,407.5,120,408.9,120z"/>
	<path class="st3" d="M454.4,123.5h-5v-13.1c0-2.7-1.2-4.1-3.6-4.1c-1.4,0-2.5,0.5-3.4,1.5c-0.8,1-1.3,2.6-1.3,4.6v11h-5v-13.1
		c0-2.8-1.1-4.1-3.4-4.1c-1.4,0-2.5,0.6-3.5,1.7c-0.9,1.1-1.4,2.6-1.4,4.5v11H423v-21h4.6v4.5c1.5-3.3,3.8-4.9,7-4.9
		c3.1,0,5.1,1.6,6,4.9c1.7-3.3,4-4.9,7-4.9c2,0,3.7,0.6,4.9,1.9c1.2,1.3,1.9,2.8,1.9,4.7V123.5z"/>
</g>
</svg>
